<?xml version="1.0" standalone="no"?>
<!DOCTYPE svg PUBLIC "-//W3C//DTD SVG 20010904//EN"
 "http://www.w3.org/TR/2001/REC-SVG-20010904/DTD/svg10.dtd">
<svg version="1.0" xmlns="http://www.w3.org/2000/svg"
 width="2271.000000pt" height="501.000000pt" viewBox="0 0 2271.000000 501.000000"
 preserveAspectRatio="xMidYMid meet">

<g transform="translate(0.000000,501.000000) scale(0.100000,-0.100000)"
fill="#000000" stroke="none">
<path d="M0 4956 l0 -54 177 -164 c98 -89 274 -253 393 -363 119 -110 357
-330 530 -490 173 -159 344 -317 380 -350 36 -34 94 -88 130 -121 36 -32 67
-61 70 -64 3 -3 50 -45 105 -95 55 -49 136 -123 180 -165 44 -41 107 -100 140
-130 263 -241 312 -287 325 -300 60 -60 153 -140 162 -140 7 0 59 48 116 108
57 59 217 222 355 362 139 140 389 395 557 565 502 510 967 980 984 994 14 12
29 2 109 -70 50 -46 137 -127 192 -180 55 -53 125 -118 155 -144 30 -26 93
-84 140 -129 75 -72 296 -280 505 -475 39 -36 113 -106 165 -156 104 -98 267
-251 573 -535 108 -100 197 -190 197 -198 0 -9 -35 -49 -77 -90 -43 -41 -240
-235 -438 -431 -294 -291 -1408 -1387 -1477 -1454 -11 -10 -18 -24 -16 -32 3
-13 112 -114 418 -390 69 -61 161 -146 205 -188 l80 -76 185 -1 185 0 150 148
c83 81 220 214 305 296 85 82 241 233 345 335 105 102 256 249 335 325 299
288 659 636 930 901 361 351 743 720 751 725 5 3 71 66 146 140 76 74 197 190
268 259 72 69 247 239 390 376 142 138 280 270 305 295 65 63 255 246 530 510
129 124 302 291 385 371 82 80 193 186 245 237 l95 92 -183 0 -182 0 -158
-154 c-86 -84 -169 -164 -183 -177 -37 -34 -552 -533 -739 -716 -85 -83 -168
-164 -185 -178 -16 -15 -84 -80 -150 -144 -352 -342 -504 -489 -739 -716 -270
-259 -499 -482 -841 -815 -110 -107 -252 -244 -315 -305 -172 -165 -412 -399
-620 -602 -102 -100 -215 -210 -251 -245 -147 -141 -374 -362 -550 -532 -102
-100 -206 -201 -232 -225 l-46 -44 -108 99 c-59 54 -113 103 -119 109 -6 5
-77 70 -158 144 -80 74 -146 140 -146 146 0 12 243 254 1075 1070 263 259 584
573 712 699 128 126 233 233 233 238 0 12 9 4 -395 378 -198 183 -398 370
-445 414 -215 204 -285 270 -415 391 -77 72 -221 207 -320 300 -99 94 -232
217 -295 275 -63 58 -158 146 -210 196 -52 49 -168 159 -257 242 l-161 152
-179 0 -178 -1 55 -51 c168 -156 221 -210 218 -222 -2 -8 -221 -235 -488 -506
-267 -271 -606 -617 -755 -769 -148 -152 -345 -352 -436 -445 l-167 -170 -99
90 c-54 49 -100 91 -103 94 -7 8 -306 285 -370 345 -30 27 -116 107 -190 176
-74 69 -335 309 -580 534 -245 225 -488 449 -540 499 -52 50 -177 167 -278
259 l-182 167 -115 0 -115 0 0 -54z"/>
<path d="M620 4978 c56 -50 359 -331 500 -463 41 -39 131 -122 200 -185 69
-62 166 -152 215 -199 50 -47 169 -158 265 -246 96 -88 182 -167 190 -175 9
-8 66 -60 126 -116 299 -276 409 -379 412 -386 12 -27 65 19 293 254 140 145
365 375 500 513 135 137 356 362 490 498 134 137 245 255 247 262 4 18 -153
165 -176 165 -5 0 -157 -151 -337 -335 -180 -184 -334 -335 -342 -335 -8 0
-83 64 -167 143 -83 78 -264 246 -401 372 -137 127 -258 238 -267 248 -16 15
-40 17 -193 17 l-175 0 67 -62 c37 -35 106 -99 153 -143 47 -44 151 -141 230
-215 80 -74 177 -164 215 -200 39 -36 126 -117 195 -180 164 -151 172 -159
163 -175 -17 -29 -477 -495 -489 -495 -13 0 -47 30 -294 259 -162 151 -251
232 -330 305 -36 33 -128 118 -205 190 -77 72 -178 167 -225 211 -95 89 -272
252 -365 336 -33 30 -87 80 -121 112 l-61 57 -174 0 -174 -1 35 -31z"/>
<path d="M1300 5001 c0 -5 4 -11 9 -13 9 -3 167 -147 306 -279 44 -41 102 -95
129 -120 27 -24 66 -60 86 -79 20 -19 64 -60 96 -90 33 -30 124 -116 204 -190
80 -74 188 -173 239 -220 52 -47 106 -95 120 -108 l25 -23 54 53 c78 75 101
101 102 114 0 6 -21 31 -47 55 -48 43 -257 235 -277 254 -6 6 -87 81 -181 166
-93 85 -193 177 -220 204 -28 28 -109 103 -179 168 l-129 117 -168 0 c-96 0
-169 -4 -169 -9z"/>
<path d="M2741 4984 c54 -58 431 -399 444 -402 13 -3 351 332 406 401 l20 27
-173 0 -174 0 -44 -45 c-24 -25 -47 -45 -50 -45 -3 1 -27 21 -54 45 l-50 45
-175 0 -174 0 24 -26z"/>
<path d="M4935 4942 c39 -37 198 -186 353 -331 155 -145 282 -270 282 -276 0
-7 10 -16 23 -19 12 -3 58 -41 102 -83 44 -43 147 -141 230 -218 156 -147 295
-278 455 -430 104 -98 286 -267 475 -440 66 -60 154 -141 195 -180 155 -146
216 -204 263 -245 26 -24 47 -49 47 -57 0 -7 -105 -116 -232 -241 -366 -357
-519 -506 -575 -558 -28 -27 -242 -236 -475 -465 -232 -229 -496 -487 -585
-574 -90 -87 -163 -164 -163 -171 0 -20 152 -155 171 -152 9 2 173 156 364
343 191 187 377 369 413 405 478 463 1038 1007 1297 1260 226 221 451 441 540
527 75 72 636 614 1000 968 176 170 385 373 465 450 80 77 204 196 275 266 72
69 168 162 215 207 l85 82 -182 0 -182 0 -45 -42 c-24 -24 -169 -165 -323
-314 -368 -360 -446 -433 -457 -434 -10 0 -58 44 -241 219 -61 59 -184 176
-275 261 -91 85 -201 190 -245 232 l-80 78 -180 0 -180 0 65 -62 c36 -34 101
-96 145 -138 44 -41 134 -127 200 -190 66 -63 197 -187 290 -275 94 -88 204
-192 245 -232 l75 -73 -160 -158 c-88 -86 -208 -204 -267 -261 l-107 -103 -83
78 c-46 43 -119 112 -163 153 -44 42 -150 141 -235 221 -285 268 -435 410
-635 601 -60 58 -139 132 -175 165 -36 32 -105 98 -155 146 -146 141 -116 129
-319 126 l-175 -3 230 -215 c127 -118 281 -262 342 -319 62 -57 148 -139 192
-180 60 -58 676 -638 786 -741 126 -118 207 -204 201 -214 -19 -31 -509 -496
-519 -494 -6 2 -40 30 -75 63 -35 33 -88 82 -118 109 -30 28 -127 118 -215
201 -88 83 -196 184 -240 225 -152 139 -319 296 -579 540 -144 135 -297 279
-341 320 -44 41 -122 116 -175 165 -52 50 -129 122 -171 160 -41 39 -150 141
-242 228 l-167 157 -178 0 -177 0 70 -68z"/>
<path d="M5640 4957 c31 -28 166 -155 300 -282 135 -126 292 -275 350 -331 58
-56 137 -130 176 -165 39 -35 145 -133 235 -218 90 -85 187 -175 214 -200 28
-25 127 -118 220 -206 313 -294 386 -360 402 -363 17 -4 163 134 163 154 0 11
-181 187 -485 470 -292 271 -418 389 -444 414 -14 14 -172 163 -351 330 -178
168 -359 338 -401 378 l-76 72 -179 0 -179 0 55 -53z"/>
<path d="M7152 4903 c222 -212 325 -309 403 -383 44 -41 130 -122 190 -180
106 -102 363 -344 454 -429 l45 -41 25 23 c14 12 53 48 86 80 49 48 58 60 49
75 -6 9 -89 91 -185 181 -96 90 -259 246 -364 346 -104 99 -250 238 -324 308
l-133 127 -180 0 -179 0 113 -107z"/>
<path d="M8565 4942 c218 -210 388 -367 399 -367 12 0 429 401 439 423 5 9
-33 12 -171 12 l-178 0 -44 -45 c-24 -25 -49 -45 -55 -45 -6 0 -31 20 -55 45
l-44 45 -181 0 -180 0 70 -68z"/>
<path d="M11150 4907 c-58 -56 -195 -187 -305 -292 -110 -104 -272 -260 -360
-345 -88 -86 -275 -266 -415 -400 -140 -135 -309 -298 -375 -362 -66 -64 -140
-136 -165 -160 -104 -99 -535 -513 -670 -644 -80 -77 -201 -194 -270 -259 -69
-66 -177 -169 -240 -230 -120 -116 -706 -683 -940 -909 -74 -72 -245 -237
-380 -366 -135 -129 -315 -303 -400 -386 -143 -139 -249 -242 -485 -467 l-90
-86 175 -1 175 0 100 96 c55 53 150 143 210 201 61 58 164 158 230 222 104
102 284 275 780 751 66 63 180 174 255 246 74 71 189 182 255 245 65 62 182
175 260 249 215 208 377 363 396 380 9 8 79 76 155 151 77 74 186 180 244 234
58 55 224 214 370 354 146 141 321 310 390 375 69 66 177 171 241 233 65 62
123 113 130 113 8 0 39 -24 69 -53 30 -29 100 -95 155 -147 55 -52 215 -205
355 -340 332 -319 459 -441 605 -580 312 -298 809 -774 902 -864 l72 -70 48
45 c107 98 930 866 1108 1033 104 98 254 237 332 310 78 72 142 138 142 147 1
8 -35 51 -79 94 l-81 78 -37 -34 c-20 -19 -71 -66 -112 -104 -41 -38 -118
-110 -170 -160 -53 -49 -156 -147 -230 -216 -74 -69 -243 -226 -375 -350 -132
-123 -265 -246 -295 -274 -30 -27 -96 -90 -146 -138 -69 -66 -96 -87 -107 -80
-9 4 -95 85 -193 178 -97 94 -210 201 -250 239 -41 38 -74 77 -73 85 1 9 74
83 163 165 88 83 240 224 336 315 96 91 213 202 260 247 47 44 162 152 255
239 94 88 206 194 250 236 44 42 101 96 128 119 26 23 47 48 47 55 0 16 -148
165 -165 165 -11 0 -137 -114 -340 -310 -49 -47 -171 -162 -270 -255 -99 -93
-211 -199 -250 -235 -38 -37 -110 -105 -160 -151 -182 -171 -311 -294 -370
-351 -33 -32 -67 -58 -74 -58 -8 0 -67 51 -131 113 -63 61 -158 153 -210 202
-52 50 -252 242 -445 427 -192 185 -378 362 -412 393 -35 32 -63 63 -63 70 0
6 21 31 48 56 84 77 622 592 792 757 l165 161 -180 0 -180 1 -105 -103z"/>
<path d="M11942 4963 c-72 -69 -198 -190 -432 -412 -113 -108 -254 -244 -315
-303 -60 -58 -134 -128 -162 -154 -29 -26 -53 -52 -53 -59 0 -6 42 -51 93
-100 50 -49 202 -195 337 -324 134 -130 289 -279 343 -331 54 -52 104 -98 111
-102 8 -4 35 14 72 49 32 31 93 88 134 127 41 40 147 139 235 221 88 82 210
197 270 255 141 136 241 230 445 420 91 84 196 184 235 222 38 37 77 68 85 68
8 0 132 -115 275 -255 l260 -254 -85 -84 c-86 -84 -340 -325 -525 -497 -55
-51 -170 -159 -255 -240 -244 -229 -470 -442 -532 -500 -32 -29 -58 -58 -58
-64 0 -14 155 -156 171 -156 6 0 73 57 148 128 74 70 145 136 157 147 12 11
50 47 85 80 35 34 102 96 149 140 92 85 212 198 356 334 49 47 150 142 224
211 74 69 168 157 210 197 87 82 124 113 138 113 19 0 521 -501 516 -515 -5
-12 -108 -109 -519 -489 -82 -77 -188 -176 -235 -220 -90 -86 -304 -287 -430
-403 -355 -329 -553 -514 -747 -697 l-63 -59 -22 19 c-13 10 -68 61 -123 114
-240 229 -569 544 -680 650 -219 210 -568 544 -669 640 -55 52 -157 149 -226
215 -112 107 -236 226 -386 368 l-51 48 -51 -48 c-28 -26 -97 -93 -154 -148
-57 -55 -207 -199 -333 -320 -238 -228 -311 -297 -705 -676 -129 -124 -347
-332 -485 -463 -137 -131 -257 -246 -265 -255 -9 -9 -65 -63 -125 -121 -61
-58 -199 -191 -309 -295 -109 -105 -221 -212 -250 -240 -29 -27 -146 -140
-261 -250 -252 -240 -461 -442 -610 -587 l-110 -108 175 0 175 1 126 122 c187
181 521 501 629 603 95 89 462 440 660 630 195 187 343 329 360 344 9 8 66 62
126 120 60 58 170 163 244 235 132 126 293 281 397 379 l51 49 169 -159 c92
-87 308 -292 478 -454 171 -162 382 -362 470 -445 88 -82 198 -186 245 -230
90 -86 226 -213 246 -230 6 -5 61 -57 121 -115 60 -58 142 -136 183 -175 41
-38 118 -110 170 -160 110 -105 409 -387 491 -463 l56 -52 222 0 222 0 177
162 c97 90 230 212 296 272 67 60 150 136 186 170 36 34 115 106 175 161 139
125 466 426 565 520 41 38 127 117 189 175 63 58 129 119 146 135 17 17 78 72
135 124 58 52 134 122 170 156 75 71 232 218 305 285 28 26 104 95 170 155 66
60 152 139 190 176 39 36 87 81 108 99 20 18 37 40 37 49 0 10 -80 95 -177
191 -195 190 -692 680 -1208 1189 -567 560 -888 871 -898 871 -12 0 -54 -38
-276 -249 -96 -91 -179 -170 -186 -176 -13 -12 -102 -96 -350 -331 -590 -558
-643 -608 -656 -612 -13 -5 -50 28 -307 277 -128 124 -231 230 -230 237 2 6
215 213 473 459 259 246 486 463 505 481 l35 34 -182 0 -182 0 -49 -47z
m-1448 -1860 c34 -31 120 -113 191 -182 72 -69 213 -205 315 -301 101 -96 234
-223 295 -281 60 -58 150 -144 199 -190 49 -46 115 -109 147 -139 32 -30 140
-134 241 -230 101 -96 233 -222 293 -280 360 -347 386 -371 402 -367 12 2 165
140 318 286 50 47 122 115 160 150 39 35 111 103 160 150 50 47 115 108 145
135 59 53 178 164 610 566 678 633 764 712 783 721 17 10 49 -19 273 -242 140
-140 254 -256 254 -259 0 -4 -159 -153 -352 -332 -194 -180 -400 -370 -458
-424 -58 -53 -157 -145 -220 -203 -63 -58 -182 -169 -265 -245 -284 -264 -390
-362 -465 -431 -81 -74 -156 -143 -265 -245 -39 -36 -117 -108 -175 -160 -58
-52 -134 -122 -170 -156 -215 -199 -343 -314 -353 -314 -7 0 -198 177 -447
415 -47 45 -128 121 -180 171 -52 49 -183 172 -290 274 -193 184 -297 282
-460 435 -47 44 -132 125 -190 180 -58 55 -146 138 -195 185 -104 98 -443 420
-590 560 -239 228 -305 294 -305 305 0 6 87 94 193 196 105 101 221 212 257
246 36 35 69 63 74 63 5 0 37 -26 70 -57z"/>
<path d="M10337 2737 c-42 -40 -77 -77 -77 -83 0 -10 137 -147 310 -309 98
-92 258 -244 395 -375 145 -139 485 -462 499 -475 6 -5 58 -55 116 -110 241
-228 309 -293 371 -350 55 -52 204 -194 528 -502 42 -40 81 -72 87 -70 10 2
101 83 299 267 38 36 97 90 130 120 33 29 96 88 141 129 44 42 102 96 130 121
49 45 231 214 484 449 74 69 164 153 200 186 36 33 99 91 140 130 160 149 217
202 275 255 103 95 326 302 402 374 39 37 88 82 107 100 20 17 36 40 36 50 0
21 -138 155 -160 156 -8 0 -42 -26 -75 -58 -51 -50 -168 -158 -415 -386 -30
-28 -96 -89 -145 -136 -50 -47 -122 -114 -161 -150 -38 -36 -126 -117 -195
-181 -68 -63 -153 -142 -189 -174 -81 -74 -72 -65 -172 -160 -103 -98 -310
-290 -398 -370 -36 -32 -145 -133 -243 -224 -98 -91 -181 -167 -185 -169 -11
-3 -37 21 -378 348 -126 122 -321 306 -584 555 -52 49 -138 130 -190 180 -52
50 -154 147 -225 216 -147 140 -262 249 -279 264 -15 13 -201 191 -353 338
-68 64 -128 117 -135 117 -7 -1 -48 -33 -91 -73z"/>
<path d="M12660 4948 c-36 -34 -153 -145 -260 -248 -107 -102 -242 -231 -300
-285 -58 -54 -150 -142 -205 -196 -55 -53 -119 -113 -142 -134 -24 -20 -43
-43 -43 -51 0 -13 141 -155 161 -162 5 -2 29 13 52 34 57 50 319 297 382 359
28 28 165 158 305 290 139 132 303 288 364 347 l111 108 -180 0 -180 0 -65
-62z"/>
<path d="M13850 4768 c270 -266 677 -668 1558 -1540 320 -317 582 -582 582
-588 0 -12 -92 -101 -310 -300 -69 -63 -145 -132 -170 -155 -25 -23 -103 -95
-174 -161 -114 -104 -290 -267 -491 -453 -33 -31 -119 -110 -190 -176 -72 -65
-168 -155 -215 -200 -47 -44 -137 -127 -200 -184 -63 -58 -167 -152 -230 -210
-62 -59 -146 -135 -185 -170 -38 -35 -97 -89 -130 -120 -91 -84 -152 -139
-364 -331 l-193 -175 177 -3 177 -2 121 113 c67 62 214 196 327 297 113 102
270 245 350 320 143 133 297 275 435 400 39 35 99 91 135 125 36 34 97 91 135
126 39 34 72 66 75 69 3 3 88 82 190 174 102 93 210 192 240 220 30 28 105 96
165 151 61 54 148 135 195 180 47 44 176 165 288 269 111 103 202 193 202 198
0 6 -92 101 -205 212 -112 110 -511 505 -886 876 -375 371 -819 811 -988 977
l-306 302 -180 0 -180 0 245 -241z"/>
<path d="M15010 4338 c1287 -1279 1700 -1692 1700 -1698 0 -4 -21 -26 -47 -50
-27 -24 -97 -89 -158 -145 -259 -240 -522 -482 -710 -655 -282 -259 -675 -621
-700 -645 -11 -11 -46 -42 -76 -70 -177 -161 -316 -288 -464 -425 -38 -36
-137 -126 -220 -200 -82 -74 -159 -144 -171 -155 -21 -20 -205 -190 -279 -258
l-40 -36 175 -1 176 0 139 126 c77 70 209 190 293 268 85 77 164 149 175 159
22 19 86 77 417 382 108 99 290 265 405 370 116 104 246 224 290 265 44 42
134 125 200 185 66 60 154 141 195 180 120 112 372 344 580 535 182 167 489
449 510 470 3 3 30 28 60 55 30 28 102 93 160 145 58 52 136 124 175 160 38
36 97 90 130 120 113 103 309 285 389 361 45 42 191 177 326 299 135 123 294
269 353 324 60 56 117 105 126 109 14 7 52 -27 183 -160 185 -187 309 -319
320 -338 5 -9 -26 -44 -94 -107 -274 -251 -389 -357 -453 -417 -39 -36 -113
-104 -165 -150 -52 -46 -120 -107 -150 -136 -30 -28 -132 -121 -226 -206 -181
-163 -766 -699 -774 -709 -3 -4 -34 -33 -70 -65 -151 -137 -252 -228 -555
-505 -176 -161 -401 -367 -500 -459 -100 -91 -223 -204 -275 -251 -52 -47
-122 -110 -155 -141 -59 -55 -555 -506 -730 -663 -49 -45 -120 -109 -157 -144
l-67 -62 177 0 177 1 45 40 c25 23 83 76 130 118 47 42 110 99 140 127 30 28
75 68 99 90 25 21 108 97 186 169 160 148 320 293 450 410 48 44 147 134 219
199 220 201 337 308 411 376 39 36 116 106 170 155 55 50 132 119 170 155 39
36 138 126 220 200 176 160 278 253 360 330 33 31 161 148 285 260 124 113
230 209 235 215 6 6 80 74 165 150 85 77 211 191 280 255 69 63 148 135 175
159 28 25 102 93 165 151 63 59 152 141 198 183 46 43 89 77 96 77 7 0 51 -39
97 -87 46 -48 150 -154 230 -237 80 -83 159 -165 175 -182 16 -17 142 -146
279 -288 138 -142 253 -262 256 -267 3 -5 66 -71 140 -147 194 -199 633 -656
789 -822 33 -36 114 -119 178 -185 99 -102 296 -308 457 -479 22 -24 99 -102
170 -175 l130 -133 3 182 2 182 -72 76 c-69 72 -287 297 -373 386 -22 23 -83
87 -135 142 -52 54 -192 201 -310 324 -118 124 -258 270 -310 324 -52 55 -158
165 -235 245 -77 79 -151 156 -165 170 -69 73 -273 285 -525 546 -154 160
-341 353 -415 430 -308 319 -402 416 -530 550 -155 160 -435 448 -465 477 -11
10 -25 17 -31 16 -10 -2 -249 -219 -469 -424 -11 -11 -99 -91 -195 -178 -96
-88 -213 -196 -260 -240 -238 -227 -554 -511 -569 -514 -12 -2 -262 244 -762
748 l-746 750 -176 -2 -177 -3 830 -835 c456 -459 830 -839 830 -845 0 -5 -64
-68 -142 -140 -78 -71 -198 -182 -266 -245 -68 -63 -128 -117 -134 -119 -10
-3 -70 56 -1403 1382 l-810 806 -180 0 -180 0 675 -671z"/>
<path d="M15980 4090 c508 -506 931 -920 940 -920 19 0 170 137 170 155 0 7
-377 390 -837 849 l-837 836 -181 0 -180 0 925 -920z"/>
<path d="M16514 5003 c4 -5 262 -266 573 -580 311 -315 570 -573 575 -573 8 0
155 129 288 255 36 34 99 93 140 132 41 38 140 130 219 204 80 74 199 184 266
244 66 61 152 140 190 176 39 36 90 84 115 107 l45 41 -180 1 -180 0 -60 -55
c-33 -30 -67 -55 -75 -55 -8 0 -40 25 -70 55 l-56 55 -176 -2 -177 -3 140
-142 c76 -78 139 -146 139 -151 0 -18 -532 -512 -551 -512 -7 0 -192 182 -412
405 l-400 405 -180 0 c-99 0 -177 -3 -173 -7z"/>
<path d="M17455 4780 c126 -126 236 -230 244 -230 19 0 172 151 169 166 -2 7
-65 76 -142 153 l-138 141 -181 0 -182 0 230 -230z"/>
<path d="M19512 4873 c74 -76 237 -246 363 -378 126 -132 285 -298 354 -369
69 -71 144 -148 166 -171 22 -23 128 -133 235 -245 107 -112 238 -248 290
-303 52 -55 115 -121 140 -146 129 -134 283 -295 540 -566 156 -165 343 -361
416 -435 72 -74 169 -175 215 -225 149 -159 301 -318 391 -410 l88 -90 0 184
0 185 -73 75 c-40 42 -151 159 -247 261 -96 101 -236 247 -310 325 -75 77
-174 181 -221 230 -68 72 -400 420 -537 562 -15 16 -69 74 -121 128 -114 121
-274 287 -476 495 -138 143 -453 473 -554 580 -54 57 -206 216 -334 348 l-100
102 -180 0 -179 0 134 -137z"/>
<path d="M20125 4978 c27 -31 274 -294 385 -408 30 -31 136 -141 235 -246 99
-104 234 -245 301 -314 66 -69 210 -219 319 -335 213 -225 507 -534 670 -705
55 -58 134 -141 175 -184 41 -44 91 -95 110 -115 55 -58 207 -218 303 -319
l87 -93 0 187 0 186 -146 154 c-80 85 -155 165 -167 177 -12 13 -87 92 -167
177 -80 85 -206 218 -280 295 -74 77 -178 185 -230 240 -52 55 -97 102 -100
105 -3 3 -74 77 -157 165 -159 169 -220 234 -361 380 -48 50 -179 187 -292
305 -112 118 -240 252 -284 298 l-80 82 -174 0 -174 0 27 -32z"/>
<path d="M20861 4943 c35 -37 71 -75 79 -83 8 -9 105 -111 215 -226 110 -115
230 -240 265 -279 36 -38 72 -76 81 -85 9 -8 51 -53 95 -100 43 -47 153 -164
245 -260 91 -96 183 -193 203 -215 21 -22 65 -69 99 -105 35 -36 107 -112 162
-170 54 -58 138 -145 185 -195 47 -49 116 -122 153 -162 l67 -72 0 186 0 186
-47 51 c-99 108 -655 698 -792 841 -59 61 -171 180 -251 265 -80 85 -186 198
-236 250 -49 52 -121 128 -159 168 l-68 72 -180 0 -180 0 64 -67z"/>
<path d="M21540 4973 c34 -39 247 -266 425 -453 55 -58 125 -132 155 -165 30
-33 100 -107 156 -165 156 -163 371 -393 394 -423 12 -15 26 -27 31 -27 5 0 9
77 9 183 l0 182 -52 55 c-28 30 -81 87 -117 125 -37 39 -176 187 -311 330
-134 143 -273 290 -309 328 l-65 67 -174 0 -174 0 32 -37z"/>
<path d="M22231 4983 c48 -54 136 -148 230 -247 53 -56 115 -122 137 -148 22
-26 56 -61 76 -78 l36 -32 0 182 0 183 -46 53 c-25 30 -59 68 -76 84 l-30 30
-176 0 -175 0 24 -27z"/>
<path d="M0 4413 l0 -160 53 -49 c29 -27 71 -65 92 -84 71 -63 307 -280 424
-389 63 -58 142 -130 175 -160 34 -30 113 -103 176 -161 171 -160 509 -470
560 -515 25 -22 79 -72 120 -111 62 -58 477 -440 584 -537 17 -16 69 -63 116
-105 46 -42 143 -131 215 -197 71 -66 254 -233 405 -370 151 -138 316 -288
366 -335 50 -47 146 -134 214 -195 303 -270 912 -823 1058 -962 l87 -82 175
-1 175 0 -25 24 c-33 30 -252 229 -315 285 -202 179 -375 342 -375 352 0 7
640 645 1186 1184 50 50 257 254 459 454 l367 365 -74 70 c-40 39 -134 127
-208 196 -74 69 -175 164 -225 211 -76 72 -122 115 -241 224 -7 5 -43 39 -80
75 -86 82 -615 575 -698 650 -33 30 -76 70 -96 87 -19 18 -37 33 -40 33 -8 0
-1520 -1531 -1880 -1902 -68 -71 -128 -128 -134 -128 -7 0 -50 35 -96 77 -168
152 -287 260 -430 393 -80 73 -170 157 -200 184 -30 28 -94 86 -141 131 -47
44 -126 116 -175 160 -49 44 -125 114 -169 155 -44 42 -132 123 -195 180 -62
58 -121 112 -130 120 -74 68 -156 144 -206 189 -32 30 -89 81 -125 115 -146
136 -382 352 -464 426 -38 34 -118 107 -177 162 l-108 100 0 -159z m4693 -582
c23 -21 61 -56 83 -78 246 -227 414 -390 414 -401 0 -14 -1831 -1854 -1841
-1850 -10 4 -355 316 -463 419 -62 59 -77 79 -70 91 5 9 87 97 183 195 345
353 1644 1663 1648 1663 3 0 24 -18 46 -39z m766 -713 c31 -29 95 -89 142
-133 47 -44 140 -131 207 -194 67 -63 122 -119 122 -125 0 -11 -1824 -1828
-1842 -1835 -5 -1 -15 3 -21 11 -11 13 -204 190 -429 392 -49 43 -88 86 -88
95 0 20 1819 1841 1839 1841 8 0 39 -24 70 -52z"/>
<path d="M3914 2774 c-406 -410 -743 -753 -748 -762 -7 -13 8 -33 74 -94 45
-43 86 -78 90 -78 6 0 693 686 1273 1270 125 126 227 236 227 244 0 13 -157
166 -171 166 -3 0 -339 -336 -745 -746z"/>
<path d="M4648 2084 c-412 -410 -748 -752 -748 -758 0 -14 153 -156 168 -156
14 0 1502 1480 1502 1495 0 13 -154 165 -167 165 -5 0 -344 -336 -755 -746z"/>
<path d="M19079 4153 c-8 -9 -50 -48 -94 -86 -44 -38 -111 -100 -150 -136 -38
-37 -124 -116 -190 -176 -66 -60 -122 -112 -125 -116 -3 -4 -23 -22 -45 -39
-22 -17 -71 -62 -110 -99 -72 -68 -410 -382 -499 -462 -27 -24 -63 -57 -81
-74 -17 -16 -51 -48 -76 -70 -86 -78 -404 -369 -409 -374 -3 -3 -54 -51 -115
-106 -60 -55 -114 -105 -120 -111 -5 -6 -113 -105 -240 -219 -126 -115 -295
-270 -375 -344 -80 -74 -174 -162 -210 -195 -36 -33 -87 -81 -115 -106 -51
-47 -226 -207 -396 -361 -397 -361 -634 -577 -749 -684 -41 -38 -100 -92 -130
-119 -30 -27 -104 -94 -163 -150 -60 -56 -113 -102 -118 -104 -5 -2 -9 -8 -9
-13 0 -5 74 -9 173 -9 l172 1 60 56 c62 57 571 522 660 602 28 24 77 70 110
100 33 31 125 115 205 186 80 72 176 160 215 196 38 36 117 108 175 160 122
110 115 103 216 199 43 42 126 118 184 170 58 52 109 100 115 106 5 6 64 59
130 119 66 60 152 138 191 174 38 36 117 109 175 161 57 52 136 124 174 160
39 36 97 90 130 120 133 120 500 455 505 460 10 11 289 267 386 354 97 87 231
210 384 351 114 106 270 248 313 284 20 18 37 41 37 50 0 21 -140 161 -162
161 -8 0 -22 -7 -29 -17z"/>
<path d="M0 3772 l0 -160 53 -47 c185 -168 245 -222 357 -325 69 -63 154 -142
190 -175 36 -34 92 -86 125 -116 33 -30 62 -56 65 -59 3 -3 55 -51 115 -105
61 -55 130 -118 155 -141 25 -23 133 -121 240 -219 107 -98 272 -248 365 -334
94 -87 217 -199 275 -251 58 -52 159 -144 225 -205 66 -60 125 -114 131 -120
6 -5 56 -51 110 -101 54 -50 173 -157 264 -239 155 -139 285 -258 439 -400 37
-34 102 -92 146 -130 44 -38 109 -97 145 -131 36 -34 85 -79 110 -99 25 -21
90 -79 145 -129 184 -168 210 -192 264 -239 l53 -47 159 0 c87 0 159 4 159 8
0 7 -155 151 -398 369 -142 129 -213 193 -307 278 -60 55 -128 115 -150 134
-22 19 -67 59 -100 90 -34 31 -85 78 -115 105 -30 27 -98 88 -150 136 -52 48
-207 190 -345 315 -137 125 -317 289 -399 364 -82 75 -158 144 -170 154 -12
10 -41 38 -66 61 -44 41 -453 415 -560 512 -30 27 -118 108 -195 179 -77 72
-192 177 -255 235 -63 58 -121 112 -130 120 -9 8 -36 33 -61 56 -269 246 -575
527 -619 568 -30 28 -103 96 -162 150 l-108 98 0 -160z"/>
<path d="M19589 3313 c-100 -93 -220 -202 -265 -243 -46 -41 -154 -140 -241
-219 -87 -79 -196 -178 -242 -220 -46 -42 -93 -86 -105 -97 -12 -12 -100 -93
-196 -180 -96 -87 -195 -176 -220 -199 -108 -100 -201 -185 -271 -246 -41 -37
-85 -78 -99 -91 -14 -14 -50 -47 -80 -73 -30 -27 -103 -93 -161 -147 -59 -54
-118 -108 -132 -121 -36 -31 -167 -151 -326 -297 -75 -69 -151 -139 -170 -155
-19 -17 -41 -37 -50 -46 -9 -9 -90 -83 -181 -164 -152 -136 -256 -230 -415
-375 -33 -30 -105 -95 -160 -145 -86 -78 -211 -193 -295 -272 l-25 -23 177 0
177 0 103 96 c203 190 381 345 394 342 7 -2 114 -101 237 -221 l225 -217 174
0 173 1 -307 305 c-170 168 -308 309 -308 313 0 5 39 44 87 87 48 44 121 111
162 149 42 39 121 111 176 160 55 50 105 95 111 100 80 74 402 365 458 415 64
57 86 77 195 178 57 54 112 104 123 113 51 45 201 181 263 240 39 36 120 110
180 164 119 108 284 257 380 346 33 30 80 73 105 96 25 22 104 93 175 159 282
257 315 287 334 300 17 13 41 -10 297 -274 154 -158 324 -332 379 -388 92 -93
400 -411 720 -744 71 -74 186 -193 255 -265 69 -71 182 -188 250 -260 114
-119 207 -215 410 -423 89 -92 415 -431 552 -575 l98 -102 0 185 0 185 -131
135 c-145 149 -263 272 -414 430 -55 58 -167 175 -250 260 -82 86 -215 223
-295 305 -79 83 -205 213 -280 290 -74 77 -198 205 -275 285 -77 80 -270 280
-430 445 -159 165 -355 367 -435 450 -327 338 -404 415 -416 415 -6 0 -94 -75
-195 -167z"/>
<path d="M0 3138 l0 -156 98 -89 c231 -213 498 -457 627 -573 185 -167 374
-340 460 -421 39 -37 88 -82 110 -100 22 -19 69 -61 105 -95 36 -33 88 -81
115 -105 28 -24 97 -87 155 -140 58 -53 127 -116 154 -140 82 -73 500 -452
682 -618 93 -86 206 -187 249 -226 72 -64 159 -142 380 -340 44 -40 96 -86
117 -104 l36 -31 165 2 165 3 -207 187 c-113 103 -215 195 -226 205 -11 11
-67 61 -125 113 -150 133 -276 246 -345 310 -33 31 -80 73 -105 94 -25 22 -74
66 -110 100 -36 34 -83 77 -105 95 -22 19 -87 77 -145 130 -57 53 -132 121
-165 151 -33 30 -62 57 -65 60 -8 9 -222 203 -264 240 -22 19 -103 94 -181
165 -77 72 -179 164 -225 205 -88 78 -203 184 -305 280 -33 32 -82 76 -110
100 -27 23 -82 72 -121 109 -39 36 -113 104 -164 151 -52 47 -128 117 -170
155 -126 117 -434 399 -458 419 l-22 19 0 -155z"/>
<path d="M19685 2753 c-22 -20 -63 -57 -90 -82 -28 -25 -73 -66 -100 -90 -59
-53 -232 -210 -325 -297 -36 -33 -88 -80 -116 -105 -44 -38 -175 -156 -319
-289 -22 -20 -65 -58 -95 -85 -30 -26 -85 -75 -121 -109 -69 -64 -77 -71 -259
-236 -63 -57 -117 -106 -120 -109 -3 -4 -50 -46 -105 -96 -55 -49 -149 -135
-210 -191 -60 -55 -182 -165 -270 -244 -88 -79 -170 -153 -182 -164 -13 -12
-23 -28 -23 -36 0 -8 138 -151 307 -317 l308 -303 175 0 175 0 -310 311 -310
310 45 42 c57 52 257 235 375 342 134 121 117 117 186 49 33 -33 283 -283 557
-556 l497 -498 178 0 179 0 -634 635 c-348 349 -634 641 -636 648 -1 7 35 46
80 88 46 41 159 145 252 230 92 85 177 161 188 169 23 16 -87 124 1277 -1258
l506 -513 172 3 172 3 -121 125 c-118 122 -264 270 -1288 1309 -272 276 -496
508 -498 515 -1 7 19 32 45 57 303 278 485 439 496 439 8 0 125 -114 260 -252
135 -139 313 -323 396 -408 198 -202 614 -630 682 -700 75 -78 612 -631 815
-840 94 -96 186 -192 205 -213 l34 -38 177 3 176 3 -170 175 c-217 223 -512
527 -1008 1040 -366 379 -363 375 -535 552 -357 363 -895 917 -939 966 -30 32
-57 52 -70 52 -11 0 -39 -17 -61 -37z"/>
<path d="M0 2508 l0 -155 63 -52 c34 -29 100 -90 147 -135 108 -102 180 -169
301 -276 52 -47 172 -155 265 -240 93 -85 232 -211 309 -280 76 -69 166 -150
199 -181 63 -58 314 -284 541 -488 71 -64 159 -143 195 -176 149 -136 262
-238 391 -352 74 -66 148 -132 163 -147 29 -26 29 -26 195 -26 l166 0 -45 43
c-60 56 -198 181 -400 362 -209 187 -210 188 -366 330 -71 66 -146 134 -165
150 -36 32 -302 270 -329 295 -9 8 -65 60 -125 115 -60 55 -116 106 -123 112
-7 7 -97 88 -200 180 -102 93 -222 202 -267 244 -44 42 -105 98 -135 124 -30
27 -80 72 -110 100 -30 29 -75 70 -100 91 -25 21 -101 90 -170 154 -69 63
-174 160 -235 215 -60 55 -114 105 -120 110 -45 48 -45 47 -45 -117z"/>
<path d="M9670 2099 c-19 -17 -80 -74 -135 -127 -55 -54 -195 -187 -310 -297
-115 -110 -261 -249 -325 -310 -63 -60 -155 -148 -205 -195 -49 -47 -146 -139
-215 -205 -69 -66 -222 -212 -340 -325 -118 -112 -308 -293 -421 -401 -113
-109 -216 -207 -230 -218 l-24 -20 178 -1 178 0 47 47 c26 27 84 81 127 122
44 40 127 119 185 175 97 93 388 370 470 446 19 18 78 74 130 124 52 51 221
211 375 356 154 146 340 322 413 392 74 71 138 128 144 128 16 0 51 -30 217
-188 86 -82 190 -179 231 -217 75 -69 132 -123 350 -331 63 -61 153 -146 200
-190 79 -73 191 -179 350 -329 36 -34 144 -135 240 -225 96 -90 210 -196 252
-237 l77 -73 178 0 178 1 -35 31 c-48 43 -602 563 -840 788 -108 102 -272 257
-365 344 -94 88 -258 243 -365 345 -107 103 -233 222 -280 266 -47 44 -150
141 -228 215 -79 74 -149 136 -155 137 -7 2 -28 -11 -47 -28z"/>
<path d="M19678 2113 c-1 -5 -35 -36 -75 -71 -39 -35 -74 -69 -76 -77 -6 -14
19 -40 647 -680 651 -662 839 -854 959 -978 59 -62 151 -156 204 -209 l96 -98
176 0 175 0 -59 61 c-33 34 -78 80 -99 103 -22 22 -139 142 -260 266 -122 124
-397 405 -611 625 -405 415 -701 718 -915 937 -112 115 -151 144 -162 121z"/>
<path d="M0 1889 l0 -154 167 -150 c354 -319 494 -445 692 -626 63 -57 207
-187 320 -288 113 -101 267 -239 341 -306 74 -68 196 -177 270 -244 l135 -121
165 0 165 0 -55 53 c-50 47 -87 80 -191 172 -19 16 -86 77 -150 135 -63 58
-178 161 -255 229 -76 69 -143 129 -149 135 -5 6 -30 29 -55 50 -25 22 -83 74
-130 116 -47 42 -211 191 -365 330 -154 140 -282 257 -285 260 -3 3 -54 51
-115 105 -60 55 -135 123 -165 151 -30 28 -104 95 -165 149 -60 54 -125 112
-142 129 l-33 30 0 -155z"/>
<path d="M9635 1384 c-39 -37 -108 -103 -155 -148 -47 -45 -159 -151 -250
-236 -91 -85 -183 -173 -205 -195 -22 -22 -110 -105 -194 -185 -85 -80 -204
-193 -265 -251 -61 -58 -142 -135 -181 -170 -38 -36 -101 -95 -140 -132 l-70
-67 178 0 178 0 117 113 c64 61 157 150 207 197 49 47 126 120 170 162 44 42
91 86 104 98 33 28 258 237 296 275 140 138 287 275 297 275 6 0 43 -30 83
-67 39 -38 102 -97 140 -133 39 -35 111 -102 160 -149 267 -253 357 -337 520
-488 61 -56 153 -142 205 -192 l95 -90 173 -1 c94 0 172 2 172 4 0 3 -179 173
-425 401 -71 66 -174 163 -230 216 -149 141 -266 253 -279 264 -12 10 -123
114 -256 240 -228 216 -350 325 -362 325 -7 0 -45 -30 -83 -66z"/>
<path d="M18890 1393 c-29 -27 -67 -61 -82 -76 l-29 -29 37 -41 c20 -23 307
-313 637 -644 l601 -603 175 0 c96 0 172 2 170 4 -2 2 -170 172 -373 378 -746
756 -1051 1058 -1066 1058 -8 0 -40 -21 -70 -47z"/>
<path d="M0 1273 l0 -149 27 -24 c40 -34 203 -180 308 -275 302 -275 809 -729
890 -798 l33 -28 161 3 162 3 -98 87 c-54 48 -116 103 -138 123 -80 73 -102
92 -201 180 -55 50 -235 212 -399 360 -307 279 -357 324 -559 504 -128 114
-130 116 -164 145 l-22 19 0 -150z"/>
<path d="M0 666 l0 -144 132 -118 c72 -66 184 -166 247 -224 64 -58 137 -122
162 -142 l46 -38 164 0 164 1 -30 26 c-122 105 -670 597 -810 727 -33 30 -63
56 -67 56 -5 0 -8 -65 -8 -144z"/>
<path d="M9524 603 c-110 -102 -266 -250 -349 -327 -82 -78 -181 -171 -220
-208 l-70 -68 174 0 174 0 46 42 c25 23 107 99 181 169 74 70 162 152 195 183
33 31 67 56 76 56 8 0 28 -14 45 -31 16 -17 124 -118 241 -225 l211 -194 174
0 173 1 -47 43 c-26 24 -116 108 -200 186 -84 79 -175 164 -203 189 -27 26
-115 108 -195 183 -80 75 -159 148 -176 162 l-32 26 -198 -187z"/>
<path d="M18132 709 c-45 -39 -82 -78 -82 -87 0 -10 137 -153 305 -319 l306
-303 177 0 177 0 -390 390 c-215 215 -395 390 -401 390 -6 0 -47 -32 -92 -71z"/>
<path d="M0 106 l0 -106 120 0 120 0 -91 85 c-50 47 -104 95 -120 106 l-29 20
0 -105z"/>
<path d="M9660 60 l-65 -59 135 0 135 -1 -62 60 c-33 33 -65 60 -70 60 -4 0
-37 -27 -73 -60z"/>
<path d="M16718 60 l-63 -60 130 0 129 0 -49 51 c-77 78 -74 78 -147 9z"/>
</g>
</svg>
