<?xml version="1.0" standalone="no"?>
<!DOCTYPE svg PUBLIC "-//W3C//DTD SVG 20010904//EN"
 "http://www.w3.org/TR/2001/REC-SVG-20010904/DTD/svg10.dtd">
<svg version="1.0" xmlns="http://www.w3.org/2000/svg"
 width="512.000000pt" height="512.000000pt" viewBox="0 0 512.000000 512.000000"
 preserveAspectRatio="xMidYMid meet">

<g transform="translate(0.000000,512.000000) scale(0.100000,-0.100000)"
fill="#000000" stroke="none">
<path d="M1777 3746 c-64 -17 -116 -61 -147 -122 l-25 -49 0 -1015 0 -1015 25
-50 c32 -63 93 -110 162 -124 37 -8 511 -11 1603 -9 l1550 3 41 22 c53 28 107
91 122 142 17 55 17 2007 0 2062 -15 51 -69 114 -122 142 l-41 22 -1560 2
c-1250 1 -1570 -1 -1608 -11z m3165 -163 c20 -20 21 -25 8 -37 -55 -54 -1344
-1040 -1385 -1059 -77 -37 -148 -50 -233 -44 -95 7 -133 18 -204 61 -31 18
-351 262 -711 541 -451 348 -654 512 -650 521 17 45 -33 43 1605 41 l1547 -2
23 -22z m28 -1023 l0 -809 -425 329 c-233 181 -433 331 -443 334 -26 9 -68 -9
-81 -33 -19 -35 -12 -66 22 -98 17 -16 231 -184 475 -372 243 -188 442 -346
442 -350 0 -4 -9 -16 -21 -27 -21 -18 -63 -19 -1563 -22 -1144 -2 -1548 1
-1569 9 -70 29 -78 22 411 399 251 194 465 362 475 373 42 47 -6 139 -65 124
-12 -4 -212 -153 -443 -332 -231 -179 -423 -325 -427 -325 -5 0 -8 360 -8 800
0 440 3 800 8 800 4 0 275 -207 602 -461 327 -254 620 -478 650 -499 191 -130
415 -146 625 -45 49 24 255 177 700 524 347 269 631 490 633 490 1 1 2 -363 2
-809z"/>
<path d="M1013 3190 c-32 -13 -56 -54 -48 -82 18 -57 22 -58 232 -58 180 0
194 1 213 20 38 38 22 100 -31 119 -38 13 -334 14 -366 1z"/>
<path d="M703 2793 c-26 -5 -63 -48 -63 -73 0 -10 9 -29 21 -44 l20 -26 355 0
c341 0 355 1 374 20 38 38 22 100 -31 119 -31 11 -624 14 -676 4z"/>
<path d="M341 2364 c-27 -35 -26 -57 3 -91 l24 -28 479 -3 c263 -2 493 0 511
3 66 12 95 82 52 125 -19 19 -33 20 -534 20 l-515 0 -20 -26z"/>
<path d="M21 1964 c-36 -46 -22 -93 33 -114 39 -14 1282 -14 1325 1 53 19 69
81 31 119 -20 20 -33 20 -694 20 l-675 0 -20 -26z"/>
</g>
</svg>
