<?xml version="1.0" encoding="UTF-8"?>
<svg version="1.1" xmlns="http://www.w3.org/2000/svg" width="1014" height="1014">
<path d="M0 0 C1.95965195 -0.00855011 1.95965195 -0.00855011 3.95889282 -0.01727295 C6.71706518 -0.02769362 9.47520926 -0.03359086 12.23339844 -0.03710938 C14.98841983 -0.04144205 17.74311882 -0.05514591 20.49804688 -0.078125 C45.89530024 -0.28535346 70.93373722 1.36801724 96.0390625 5.453125 C97.34190186 5.66219482 98.64474121 5.87126465 99.98706055 6.08666992 C177.0967502 18.75124789 251.49681068 50.37391662 314.0390625 97.203125 C314.64041016 97.65139648 315.24175781 98.09966797 315.86132812 98.56152344 C323.09486823 103.97234251 330.05364635 109.67031188 336.91015625 115.546875 C339.79921546 118.01685602 342.75678339 120.39314324 345.7265625 122.765625 C350.35447946 126.52580753 354.53136472 130.59269309 358.6953125 134.85546875 C361.40713583 137.57181178 364.26280663 140.06233682 367.171875 142.5625 C372.17567771 146.95914673 376.62525177 151.80592804 380.96484375 156.84765625 C383.05307911 159.21904217 385.19352011 161.5313627 387.3503418 163.84008789 C393.18602268 170.09305868 398.7315711 176.49046044 404.0390625 183.203125 C404.53067871 183.81687988 405.02229492 184.43063477 405.52880859 185.06298828 C459.49961633 252.50611006 494.85589461 332.95946109 514.2421875 479.1640625 C514.24788757 480.47049713 514.25358765 481.77693176 514.25946045 483.12295532 C514.26988112 485.88112768 514.27577836 488.63927176 514.27929688 491.39746094 C514.28362955 494.15248233 514.29733341 496.90718132 514.3203125 499.66210938 C514.52754096 525.05936274 512.87417026 550.09779972 508.7890625 575.203125 C508.47545776 577.15738403 508.47545776 577.15738403 508.15551758 579.15112305 C495.49093961 656.2608127 463.86827088 730.66087318 417.0390625 793.203125 C416.36665527 794.10514648 416.36665527 794.10514648 415.68066406 795.02539062 C410.26984499 802.25893073 404.57187562 809.21770885 398.6953125 816.07421875 C396.22533148 818.96327796 393.84904426 821.92084589 391.4765625 824.890625 C387.71637997 829.51854196 383.64949441 833.69542722 379.38671875 837.859375 C376.67037572 840.57119833 374.17985068 843.42686913 371.6796875 846.3359375 C367.28304077 851.33974021 362.43625946 855.78931427 357.39453125 860.12890625 C355.02314533 862.21714161 352.7108248 864.35758261 350.40209961 866.5144043 C344.14912882 872.35008518 337.75172706 877.8956336 331.0390625 883.203125 C330.42530762 883.69474121 329.81155273 884.18635742 329.17919922 884.69287109 C261.73607744 938.66367883 181.28272641 974.01995711 35.078125 993.40625 C33.77169037 993.41195007 32.46525574 993.41765015 31.11923218 993.42352295 C28.36105982 993.43394362 25.60291574 993.43984086 22.84472656 993.44335938 C20.08970517 993.44769205 17.33500618 993.46139591 14.58007812 993.484375 C-10.81717524 993.69160346 -35.85561222 992.03823276 -60.9609375 987.953125 C-62.26377686 987.74405518 -63.56661621 987.53498535 -64.90893555 987.31958008 C-142.0186252 974.65500211 -216.41868568 943.03233338 -278.9609375 896.203125 C-279.86295898 895.53071777 -279.86295898 895.53071777 -280.78320312 894.84472656 C-288.01674323 889.43390749 -294.97552135 883.73593812 -301.83203125 877.859375 C-304.72109046 875.38939398 -307.67865839 873.01310676 -310.6484375 870.640625 C-315.27635446 866.88044247 -319.45323972 862.81355691 -323.6171875 858.55078125 C-326.32901083 855.83443822 -329.18468163 853.34391318 -332.09375 850.84375 C-337.09755271 846.44710327 -341.54712677 841.60032196 -345.88671875 836.55859375 C-347.97495411 834.18720783 -350.11539511 831.8748873 -352.2722168 829.56616211 C-358.10789768 823.31319132 -363.6534461 816.91578956 -368.9609375 810.203125 C-369.69836182 809.28249268 -369.69836182 809.28249268 -370.45068359 808.34326172 C-424.42149133 740.90013994 -459.77776961 660.44678891 -479.1640625 514.2421875 C-479.16976257 512.93575287 -479.17546265 511.62931824 -479.18133545 510.28329468 C-479.19175612 507.52512232 -479.19765336 504.76697824 -479.20117188 502.00878906 C-479.20550455 499.25376767 -479.21920841 496.49906868 -479.2421875 493.74414062 C-479.44941596 468.34688726 -477.79604526 443.30845028 -473.7109375 418.203125 C-473.50186768 416.90028564 -473.29279785 415.59744629 -473.07739258 414.25512695 C-460.41281461 337.1454373 -428.79014588 262.74537682 -381.9609375 200.203125 C-381.51266602 199.60177734 -381.06439453 199.00042969 -380.60253906 198.38085938 C-375.19171999 191.14731927 -369.49375062 184.18854115 -363.6171875 177.33203125 C-361.14720648 174.44297204 -358.77091926 171.48540411 -356.3984375 168.515625 C-352.63825497 163.88770804 -348.57136941 159.71082278 -344.30859375 155.546875 C-341.59225072 152.83505167 -339.10172568 149.97938087 -336.6015625 147.0703125 C-332.20491577 142.06650979 -327.35813446 137.61693573 -322.31640625 133.27734375 C-319.94502033 131.18910839 -317.6326998 129.04866739 -315.32397461 126.8918457 C-309.07100382 121.05616482 -302.67360206 115.5106164 -295.9609375 110.203125 C-295.34718262 109.71150879 -294.73342773 109.21989258 -294.10107422 108.71337891 C-226.65795244 54.74257117 -146.20460141 19.38629289 0 0 Z " fill="#D5DFDF" transform="translate(485.9609375,10.796875)"/>
<path d="M0 0 C3.97157945 1.32385982 7.25991299 2.50536875 10.9219656 4.33933163 C12.33983432 5.04574194 12.33983432 5.04574194 13.78634685 5.76642317 C14.81151899 6.28226313 15.83669112 6.7981031 16.89292908 7.32957458 C17.99255385 7.87888533 19.09217863 8.42819608 20.22512537 8.99415261 C23.26985661 10.51612471 26.31275285 12.04166147 29.35492885 13.56872833 C32.64013518 15.21668536 35.92766434 16.85999638 39.21492004 18.50386047 C44.91278831 21.35397551 50.60920552 24.20697307 56.30467033 27.06188774 C64.5641546 31.20199405 72.82605259 35.33726457 81.08857615 39.47130132 C94.5272518 46.19526857 107.96428502 52.92251095 121.40014648 59.65209961 C122.20416755 60.0548068 123.00818862 60.45751399 123.83657397 60.87242443 C125.04394993 61.47715906 125.04394993 61.47715906 126.27571732 62.09411055 C127.90388347 62.90960416 129.53205013 63.72509677 131.16021729 64.54058838 C131.96694322 64.94464901 132.77366915 65.34870964 133.60484132 65.76501453 C142.53071099 70.2355919 151.45705367 74.70522444 160.38354492 79.17456055 C161.1814271 79.57404706 161.97930929 79.97353358 162.80136972 80.38512575 C176.16789001 87.07743918 189.53524573 93.76808274 202.90302283 100.45788532 C211.12827412 104.57428104 219.35269502 108.69232752 227.57600213 112.81260581 C233.23159147 115.6462442 238.88789557 118.47845229 244.54473072 121.30960285 C247.79465637 122.93620958 251.04425546 124.56345919 254.29291153 126.19260025 C268.20473623 133.16859093 282.1533559 140.04853034 296.21386147 146.7204113 C302.39069562 149.65269164 308.51166387 152.69152738 314.62109375 155.76171875 C316.30356956 156.60401787 316.30356956 156.60401787 318.02003479 157.46333313 C321.49349435 159.20279215 324.96552981 160.94507047 328.4375 162.6875 C330.83767738 163.89039977 333.23816229 165.09268521 335.63867188 166.29492188 C341.42704885 169.19409862 347.21347737 172.09711231 353 175 C353 187.54 353 200.08 353 213 C348.936875 214.753125 344.87375 216.50625 340.6875 218.3125 C327.82687774 223.87607928 315.00126329 229.51692163 302.1875 235.1875 C287.92525944 241.49887224 273.65726201 247.79655089 259.375 254.0625 C258.53391693 254.43152435 257.69283386 254.80054871 256.82626343 255.18075562 C252.58190353 257.04285341 248.33737932 258.90457628 244.09277344 260.76611328 C238.98061008 263.00827944 233.8691124 265.25196003 228.7578125 267.49609375 C227.91178467 267.86754517 227.06575684 268.23899658 226.1940918 268.6217041 C223.62938358 269.74777779 221.06468905 270.87388266 218.5 272 C199.69501692 280.25699216 199.69501692 280.25699216 190.3639679 284.34927368 C171.8770265 292.45708519 153.39913165 300.58470323 134.9375 308.75 C121.32273947 314.77155295 107.69920821 320.77194515 94.05664062 326.73022461 C92.76561727 327.29409038 91.47460172 327.85797401 90.18359375 328.421875 C89.53643402 328.70454727 88.88927429 328.98721954 88.22250366 329.27845764 C81.19438259 332.34969572 74.17289938 335.43601948 67.15112305 338.52172852 C61.09378242 341.18358078 55.03511614 343.84240859 48.97605896 346.50035095 C44.45119455 348.48532112 39.92680637 350.47136317 35.40332031 352.45947266 C30.82953678 354.46940761 26.25410858 356.47555452 21.67752075 358.47909546 C19.94214928 359.23953686 18.20734079 360.00126441 16.47311401 360.76431274 C14.07860318 361.81763478 11.68215097 362.86640787 9.28515625 363.9140625 C8.57263702 364.22873978 7.8601178 364.54341705 7.12600708 364.86763 C2.22817765 367 2.22817765 367 0 367 C0 347.86 0 328.72 0 309 C21 300.25 21 300.25 31.20323181 295.99891663 C40.94713403 291.93915436 50.69066271 287.87849866 60.43359375 283.81640625 C79.94812697 275.68090032 99.46709598 267.5564591 118.99969482 259.4644165 C138.97447173 251.18850535 158.93089283 242.86865039 178.88720703 234.54833984 C187.93093407 230.77791252 196.97561576 227.00977647 206.02023315 223.2414856 C210.95102814 221.18712656 215.88176107 219.13261858 220.8125 217.078125 C222.8046872 216.24804615 224.7968747 215.41796803 226.7890625 214.58789062 C227.79743164 214.16773682 228.80580078 213.74758301 229.84472656 213.31469727 C246.89648438 206.20979818 263.94824219 199.10489909 281 192 C270.11713437 186.53392467 259.20412888 181.13432543 248.25 175.8125 C247.49609985 175.44594299 246.74219971 175.07938599 245.9654541 174.70172119 C234.81675381 169.28522668 223.61777737 163.99682812 212.35839844 158.8137207 C203.68733988 154.81202842 195.0862296 150.67938991 186.5 146.5 C176.71033955 141.73502705 166.88880835 137.05715799 157 132.5 C146.44746332 127.63696947 135.97635588 122.62579356 125.52972412 117.54098511 C116.43798518 113.11807225 107.30874345 108.79226984 98.125 104.5625 C87.85420946 99.83114381 77.66373584 94.95597572 67.5 90 C56.15457162 84.46820645 44.77033562 79.04135883 33.29882812 73.77539062 C22.13481517 68.64178062 11.09186617 63.30480556 0 58 C0 38.86 0 19.72 0 0 Z " fill="#202020" transform="translate(366,330)"/>
</svg>
