<?xml version="1.0" standalone="no"?>
<!DOCTYPE svg PUBLIC "-//W3C//DTD SVG 20010904//EN"
 "http://www.w3.org/TR/2001/REC-SVG-20010904/DTD/svg10.dtd">
<svg version="1.0" xmlns="http://www.w3.org/2000/svg"
 width="512.000000pt" height="512.000000pt" viewBox="0 0 512.000000 512.000000"
 preserveAspectRatio="xMidYMid meet">

<g transform="translate(0.000000,512.000000) scale(0.100000,-0.100000)"
fill="#000000" stroke="none">
<path d="M2460 5104 c-25 -9 -58 -26 -75 -37 -16 -12 -181 -169 -365 -349
l-335 -328 -372 0 c-352 0 -375 -1 -428 -21 -67 -25 -141 -94 -175 -164 l-25
-50 -3 -375 -3 -375 -168 -170 c-98 -99 -179 -189 -193 -215 l-23 -45 -3 -492
-3 -492 23 -20 c37 -35 90 -26 113 20 13 23 15 103 15 484 0 250 3 455 8 455
11 -1 1608 -1587 1602 -1593 -3 -3 -365 -203 -805 -444 l-800 -440 -5 639 -5
640 -24 19 c-30 25 -76 24 -101 -1 -20 -20 -20 -29 -18 -773 l3 -752 23 -43
c35 -66 88 -119 150 -149 l57 -28 1438 -3 1438 -2 24 24 c32 32 32 70 0 101
l-24 25 -1413 0 c-1356 0 -1415 1 -1454 19 -41 19 -79 61 -86 94 -2 15 192
126 1027 585 1009 556 1031 567 1085 567 54 0 76 -11 1085 -567 841 -462 1029
-569 1027 -584 -7 -34 -45 -76 -86 -95 -38 -17 -73 -19 -472 -19 -421 0 -432
0 -458 -21 -36 -29 -36 -80 1 -109 26 -21 32 -21 482 -18 l456 3 57 28 c62 30
115 83 150 149 l23 43 0 1375 0 1375 -27 50 c-17 32 -88 111 -192 215 l-166
165 0 97 c0 85 -3 101 -20 118 -33 33 -75 30 -107 -6 l-23 -25 0 -407 0 -407
-680 -680 -680 -680 -63 33 c-228 122 -215 117 -307 117 -92 0 -75 7 -307
-117 l-63 -33 -680 680 -680 680 0 669 0 669 25 44 c16 26 41 51 65 63 39 20
59 20 1641 20 l1602 0 41 -24 c23 -13 51 -42 64 -64 19 -35 22 -54 22 -160 0
-104 3 -123 20 -144 25 -33 49 -39 88 -22 41 17 45 36 40 196 -3 117 -6 139
-28 183 -35 72 -105 138 -173 164 -55 20 -74 21 -430 21 l-372 0 -345 338
c-260 255 -357 343 -395 361 -65 31 -172 38 -235 15z m168 -149 c24 -10 132
-111 307 -283 148 -147 271 -270 273 -274 2 -5 -289 -8 -647 -8 -358 0 -651 1
-651 3 0 14 539 537 571 555 49 26 95 28 147 7z m-1948 -1897 l0 -133 -67 67
-68 68 65 65 c35 36 66 65 67 65 2 0 3 -60 3 -132z m3827 -65 l-67 -68 0 135
0 135 67 -68 68 -67 -68 -67z m173 -1304 l0 -1241 -32 20 c-18 11 -379 210
-803 442 -423 232 -772 425 -775 427 -6 6 1591 1592 1603 1593 4 0 7 -558 7
-1241z"/>
<path d="M1350 3710 c-25 -25 -26 -71 -1 -101 l19 -24 1192 0 1192 0 19 24
c25 30 24 76 -1 101 -20 20 -33 20 -1210 20 -1177 0 -1190 0 -1210 -20z"/>
<path d="M1356 3139 c-19 -15 -26 -30 -26 -54 0 -24 7 -39 26 -54 27 -21 28
-21 1204 -21 1176 0 1177 0 1204 21 36 28 36 80 0 108 -27 21 -28 21 -1204 21
-1176 0 -1177 0 -1204 -21z"/>
<path d="M1383 2583 c-50 -10 -70 -86 -33 -123 20 -20 33 -20 1210 -20 1177 0
1190 0 1210 20 25 25 26 71 1 101 l-19 24 -1174 1 c-645 1 -1183 -1 -1195 -3z"/>
</g>
</svg>
