<?xml version="1.0" standalone="no"?>
<!DOCTYPE svg PUBLIC "-//W3C//DTD SVG 20010904//EN"
 "http://www.w3.org/TR/2001/REC-SVG-20010904/DTD/svg10.dtd">
<svg version="1.0" xmlns="http://www.w3.org/2000/svg"
 width="512.000000pt" height="512.000000pt" viewBox="0 0 512.000000 512.000000"
 preserveAspectRatio="xMidYMid meet">

<g transform="translate(0.000000,512.000000) scale(0.100000,-0.100000)"
fill="#000000" stroke="none">
<path d="M815 5110 c-202 -40 -361 -184 -431 -390 -18 -53 -19 -129 -19 -2160
0 -2031 1 -2107 19 -2160 63 -186 190 -313 376 -376 52 -18 105 -19 1120 -19
1015 0 1068 1 1120 19 93 31 167 76 230 138 68 68 101 120 139 217 l26 66 3
895 c1 492 0 905 -3 917 -8 32 -45 63 -76 63 -15 0 -37 -11 -53 -26 l-26 -27
0 -733 0 -734 -1360 0 -1360 0 0 1760 0 1760 453 0 c441 0 454 1 475 20 40 38
37 93 -7 127 -12 9 -129 12 -470 13 l-454 0 5 83 c12 177 101 306 255 369 l58
23 1010 2 c730 2 1016 6 1032 14 27 14 47 61 38 89 -4 11 -16 30 -28 40 -20
20 -40 20 -1026 19 -553 -1 -1024 -5 -1046 -9z m2422 -4552 c-12 -185 -108
-318 -271 -375 -48 -17 -116 -18 -1086 -18 -970 0 -1038 1 -1086 18 -163 57
-259 190 -271 375 l-6 82 1363 0 1363 0 -6 -82z"/>
<path d="M1666 454 c-15 -16 -26 -38 -26 -54 0 -16 11 -38 26 -54 l27 -26 186
0 c174 0 189 1 209 20 28 27 37 62 21 92 -24 45 -34 47 -230 48 l-186 0 -27
-26z"/>
<path d="M1363 4788 c-55 -27 -50 -114 8 -138 89 -37 151 99 63 139 -30 13
-42 13 -71 -1z"/>
<path d="M2015 4790 c-110 -22 -208 -75 -289 -156 -65 -65 -98 -117 -135 -213
l-26 -66 -3 -676 c-3 -745 -2 -758 58 -887 62 -132 222 -260 369 -294 l51 -11
0 -161 c0 -141 2 -165 21 -202 33 -70 107 -103 182 -83 35 9 76 44 257 225
l215 213 800 3 800 3 66 26 c97 38 149 71 217 139 62 63 107 137 138 230 18
52 19 97 19 760 0 663 -1 708 -19 760 -31 93 -76 167 -138 230 -68 68 -120
101 -217 139 l-66 26 -1130 2 c-621 0 -1148 -3 -1170 -7z m2328 -178 c111 -45
195 -133 234 -246 17 -47 18 -102 18 -726 0 -624 -1 -679 -18 -726 -39 -113
-123 -201 -234 -246 l-58 -23 -819 -3 -820 -3 -223 -221 -223 -222 0 187 c0
115 -4 195 -11 210 -14 31 -38 42 -121 55 -37 5 -92 21 -122 35 -64 30 -145
106 -175 165 -50 98 -51 112 -51 792 0 680 1 694 51 792 27 53 105 130 158
157 100 51 66 50 1251 48 l1105 -2 58 -23z"/>
<path d="M2066 4294 c-15 -16 -26 -38 -26 -54 0 -16 11 -38 26 -54 l27 -26
1066 0 c1058 0 1067 0 1089 20 40 38 37 93 -7 127 -12 10 -260 12 -1082 13
l-1066 0 -27 -26z"/>
<path d="M2066 3894 c-15 -16 -26 -38 -26 -54 0 -16 11 -38 26 -54 l27 -26
266 0 c281 1 285 1 310 48 16 30 7 65 -21 92 -21 19 -34 20 -289 20 l-266 0
-27 -26z"/>
<path d="M2866 3894 c-15 -16 -26 -38 -26 -54 0 -16 11 -38 26 -54 l27 -26
666 0 c656 0 668 0 689 20 40 38 37 93 -7 127 -12 9 -174 12 -682 13 l-666 0
-27 -26z"/>
<path d="M2066 3494 c-15 -16 -26 -38 -26 -54 0 -16 11 -38 26 -54 l27 -26
666 0 c656 0 668 0 689 20 40 38 37 93 -7 127 -12 9 -174 12 -682 13 l-666 0
-27 -26z"/>
<path d="M3666 3494 c-15 -16 -26 -38 -26 -54 0 -16 11 -38 26 -54 l27 -26
266 0 c281 1 285 1 310 48 16 30 7 65 -21 92 -21 19 -34 20 -289 20 l-266 0
-27 -26z"/>
<path d="M2066 3094 c-15 -16 -26 -38 -26 -54 0 -16 11 -38 26 -54 l27 -26
1066 0 c1058 0 1067 0 1089 20 40 38 37 93 -7 127 -12 10 -260 12 -1082 13
l-1066 0 -27 -26z"/>
</g>
</svg>
