<?xml version="1.0" standalone="no"?>
<!DOCTYPE svg PUBLIC "-//W3C//DTD SVG 20010904//EN"
 "http://www.w3.org/TR/2001/REC-SVG-20010904/DTD/svg10.dtd">
<svg version="1.0" xmlns="http://www.w3.org/2000/svg"
 width="512.000000pt" height="512.000000pt" viewBox="0 0 512.000000 512.000000"
 preserveAspectRatio="xMidYMid meet">

<g transform="translate(0.000000,512.000000) scale(0.100000,-0.100000)"
fill="#000000" stroke="none">
<path d="M516 4784 c-168 -41 -316 -173 -379 -339 l-22 -60 -3 -1265 c-2 -884
1 -1281 9 -1318 27 -134 140 -283 264 -349 94 -49 164 -63 324 -63 l141 0 0
-433 c0 -498 1 -508 73 -574 71 -66 154 -79 237 -39 21 9 230 220 528 531
l494 515 1187 0 c1308 0 1241 -3 1365 63 125 66 237 214 265 349 8 37 11 434
9 1318 l-3 1265 -22 58 c-58 154 -179 273 -334 329 l-64 23 -2005 2 c-1704 1
-2014 -1 -2064 -13z m4077 -218 c66 -25 149 -104 178 -168 l24 -53 0 -1255 0
-1255 -34 -63 c-38 -70 -69 -100 -145 -140 l-51 -27 -1235 -5 c-1077 -4 -1238
-7 -1255 -20 -12 -8 -241 -244 -510 -524 l-490 -509 -5 489 c-4 370 -8 494
-18 511 -24 44 -47 48 -277 53 -214 5 -221 6 -271 32 -75 40 -107 70 -145 140
l-34 63 0 1250 c0 1205 1 1252 19 1299 21 54 80 124 131 156 82 51 -8 49 2105
47 1888 -2 1967 -3 2013 -21z"/>
<path d="M1224 3821 c-44 -27 -60 -77 -41 -124 30 -70 -2 -67 635 -67 l574 0
29 29 c48 49 34 142 -26 169 -19 9 -172 12 -583 12 -532 0 -558 -1 -588 -19z"/>
<path d="M1224 3181 c-44 -27 -60 -77 -41 -124 31 -73 -86 -67 1378 -67 1305
0 1317 0 1342 20 38 30 52 80 33 123 -30 72 69 67 -1378 67 -1267 0 -1304 -1
-1334 -19z"/>
<path d="M1224 2541 c-44 -27 -60 -77 -41 -124 31 -72 -61 -67 1159 -67 787 0
1104 3 1122 11 60 28 71 122 20 170 l-26 24 -1101 3 c-1073 2 -1103 2 -1133
-17z"/>
</g>
</svg>
