<?xml version="1.0" standalone="no"?>
<!DOCTYPE svg PUBLIC "-//W3C//DTD SVG 20010904//EN"
 "http://www.w3.org/TR/2001/REC-SVG-20010904/DTD/svg10.dtd">
<svg version="1.0" xmlns="http://www.w3.org/2000/svg"
 width="579.000000pt" height="400.000000pt" viewBox="0 0 579.000000 400.000000"
 preserveAspectRatio="xMidYMid meet">

<g transform="translate(0.000000,400.000000) scale(0.100000,-0.100000)"
fill="#000000" stroke="none">
<path d="M660 3039 l0 -174 610 -250 c335 -137 606 -252 602 -256 -4 -4 -268
-113 -587 -244 -319 -131 -590 -242 -602 -248 -23 -10 -23 -14 -23 -179 0 -92
3 -168 7 -168 4 0 389 161 855 357 l849 358 -3 128 -3 129 -840 355 c-462 195
-846 357 -852 360 -10 4 -13 -33 -13 -168z"/>
<path d="M2920 1128 c-59 -31 -82 -75 -77 -151 4 -65 25 -101 78 -132 33 -20
52 -20 804 -20 718 0 772 1 802 18 39 21 62 53 73 104 11 49 -5 121 -33 152
-48 52 -30 51 -845 51 l-758 0 -44 -22z"/>
</g>
</svg>
